# xmcd
#
# Track frame offsets:
#	150
#	17912
#	35765
#	54105
#	67697
#	80020
#	96057
#	112962
#	126002
#	142502
#
# Disc length: 2084 seconds
#
# Revision: 1
# Processed by: cddbd v1.5.2PL0 Copyright (c) Steve Scherf et al.
# Submitted via: audiograbber 1.83.01
#
DISCID=7208220a
DTITLE=Iva Zanicchi - La riva bianca, la riva nera (Butterfly)
DYEAR=1900
DGENRE=Canzone
TTITLE0=Ciao cara, come stai
TTITLE1=La notte dell'addio
TTITLE2=Accarezzame
TTITLE3=Io ti darò di più
TTITLE4=Mamma tutto
TTITLE5=Senza Catene (Unchained Melody)
TTITLE6=La riva bianca, la riva nera
TTITLE7=Che m'e 'mparato a ffa
TTITLE8=Un uomo senza tempo (Mi viejo)
TTITLE9=Dio come ti amo
EXTD=
EXTT0=
EXTT1=
EXTT2=
EXTT3=
EXTT4=
EXTT5=
EXTT6=
EXTT7=
EXTT8=
EXTT9=
PLAYORDER=
